<svg xmlns="http://www.w3.org/2000/svg" width="26" height="26" id="chart">
  <g fill="#fff" fill-rule="evenodd" transform="translate(5 -1031.362)">
    <circle cx="8" cy="1044.362" r="13" fill="#239fdb"></circle>
    <path fill="#0b5ecd" d="M10.799 25.799a13 13 0 0 0 .904.137A13 13 0 0 0 13 26a13 13 0 0 0 .92-.033 13 13 0 0 0 1.289-.156 13 13 0 0 0 1.268-.286 13 13 0 0 0 1.234-.408 13 13 0 0 0 1.185-.531 13 13 0 0 0 1.127-.647 13 13 0 0 0 1.057-.755 13 13 0 0 0 .977-.858 13 13 0 0 0 .886-.951 13 13 0 0 0 .786-1.035 13 13 0 0 0 .68-1.108 13 13 0 0 0 .566-1.17 13 13 0 0 0 .445-1.22 13 13 0 0 0 .32-1.26 13 13 0 0 0 .104-.684l-6.871-6.87h-1.948v1.449a.479.479 0 0 1 .002.05v1.502l-1.002-1.002h-1.998v4l-1-1L6 6H5v14l5.799 5.799z" color="#000" font-family="sans-serif" font-weight="400" style="line-height:normal;text-indent:0;text-align:start;text-decoration-line:none;text-decoration-style:solid;text-decoration-color:#000;text-transform:none;block-progression:tb;isolation:auto;mix-blend-mode:normal" transform="translate(-5 1031.362)"></path>
    <path d="M0 1v14h16v-1h-2.027V3.027h-1.948v1.45a.478.478 0 0 1 .002.05V14h-1.002V5.027H9.027V14h-1V8.027h-2V14h-1v-2.973h-2V14H1V1H0Z" color="#000" font-family="sans-serif" font-weight="400" overflow="visible" style="line-height:normal;text-indent:0;text-align:start;text-decoration-line:none;text-decoration-style:solid;text-decoration-color:#000;text-transform:none;block-progression:tb;isolation:auto;mix-blend-mode:normal" transform="translate(0 1036.362)"></path>
  </g>
</svg>
