<svg xmlns="http://www.w3.org/2000/svg" viewBox="0 0 24 24" id="settings">
  <defs>
    <linearGradient id="a" x1="3.47" x2="20.53" y1="20.53" y2="3.47" gradientUnits="userSpaceOnUse">
      <stop offset="0" stop-color="#5433ff"></stop>
      <stop offset="1" stop-color="#20bdff"></stop>
    </linearGradient>
  </defs>
  <path fill="url(#a)" d="m3,5.75h10.367c.329,1.151,1.378,2,2.633,2s2.304-.849,2.633-2h2.367c.414,0,.75-.336.75-.75s-.336-.75-.75-.75h-2.367c-.329-1.151-1.378-2-2.633-2s-2.304.849-2.633,2H3c-.414,0-.75.336-.75.75s.336.75.75.75Zm13-2c.689,0,1.25.561,1.25,1.25s-.561,1.25-1.25,1.25-1.25-.561-1.25-1.25.561-1.25,1.25-1.25Zm5,14.5h-2.367c-.329-1.151-1.378-2-2.633-2s-2.304.849-2.633,2H3c-.414,0-.75.336-.75.75s.336.75.75.75h10.367c.329,1.151,1.378,2,2.633,2s2.304-.849,2.633-2h2.367c.414,0,.75-.336.75-.75s-.336-.75-.75-.75Zm-5,2c-.689,0-1.25-.561-1.25-1.25s.561-1.25,1.25-1.25,1.25.561,1.25,1.25-.561,1.25-1.25,1.25Zm5-9h-10.367c-.329-1.151-1.378-2-2.633-2s-2.304.849-2.633,2h-2.367c-.414,0-.75.336-.75.75s.336.75.75.75h2.367c.329,1.151,1.378,2,2.633,2s2.304-.849,2.633-2h10.367c.414,0,.75-.336.75-.75s-.336-.75-.75-.75Zm-13,2c-.689,0-1.25-.561-1.25-1.25s.561-1.25,1.25-1.25,1.25.561,1.25,1.25-.561,1.25-1.25,1.25Z"></path>
</svg>
