<svg xmlns="http://www.w3.org/2000/svg" viewBox="0 0 32 32" id="cloud-upload">
  <g>
    <path fill="#289efd" d="M19.75 18.75a1 1 0 0 0 0-1.42l-3.09-3.09a1 1 0 0 0-1.42 0l-3.09 3.09a1 1 0 0 0 1.41 1.42L15 17.36v10.07a1 1 0 0 0 2 0V17.36l1.39 1.39a1 1 0 0 0 1.36 0Z"></path>
    <path fill="#2a60fc" d="M24.38 10.64c.09-8.07-11.2-9.81-13.62-2.15-10-.53-9.35 14 .71 12.87H14v-1.64a2 2 0 0 1-2.51-3.09l3.09-3.1a2 2 0 0 1 2.84 0l3.09 3.09a2 2 0 0 1-2.51 3.1v1.64h5a5.45 5.45 0 0 0 1.38-10.72Z"></path>
  </g>
</svg>
